<svg xmlns="http://www.w3.org/2000/svg" viewBox="0 -11 509.47136 509" width="50" height="50"><g fill="#17cad0"><path d="m12.066406 99.800781c3.957032 7.878907 13.539063 11.070313 21.429688 7.144531l2.78125-1.390624 2.660156 5.324218c2.6875 5.421875 8.226562 8.84375 14.277344 8.824219h11.5625c1.304687-.003906 2.605468-.164063 3.875-.480469l27.613281-6.902344c6.527344-1.621093 11.328125-7.167968 12.007813-13.859374l25.683593 10.832031v63.742187l-21.53125 16.152344c-.9375.699219-1.796875 1.496094-2.558593 2.382812l-50.066407 58.417969c-.050781.0625-.082031.144531-.132812.207031-.796875.796876-1.425781 1.746094-1.855469 2.789063-.050781.09375-.117188.164063-.160156.246094l-15.914063 31.957031-14.039062 14.039062c-2.984375 3-4.664063 7.058594-4.675781 11.289063v153.019531c0 12.757813 10.34375 23.101563 23.101562 23.101563h26.339844c2.480468-.007813 4.925781-.59375 7.144531-1.707031l11.390625-5.699219c5.414062-2.683594 8.835938-8.210938 8.824219-14.253907v-13.039062c28.832031-1.996094 119.6875-7.96875 153.601562-7.96875 34.046875 0 125.4375 6.042969 153.597657 7.960938v8.636718c-.023438 8.765625 4.941406 16.777344 12.800781 20.660156l5.972656 2.96875c3.179687 1.589844 6.683594 2.421876 10.242187 2.441407h24.660157c6.128906.003906 12.011719-2.425781 16.351562-6.757813 4.335938-4.332031 6.773438-10.210937 6.773438-16.34375v-149.023437c.019531-6.796875-2.679688-13.320313-7.5-18.109375l-11.09375-11.09375-16.394531-32.886719c-.3125-.617187-.703126-1.1875-1.160157-1.707031l-46.933593-54.75c-3.238282-3.785156-6.882813-7.203125-10.871094-10.1875l-16.980469-12.742188v-63.574218l25.601563-10.964844v4.140625c0 3.914062 2.660156 7.324219 6.457031 8.277343l34.132812 8.53125c.679688.171876 1.375.257813 2.074219.257813h17.066406c3.25.015625 6.230469-1.8125 7.679688-4.71875l5.316406-10.640625c11.828125 1.746094 23.441406-4.28125 28.820312-14.960938l8.53125-17.066406c1.011719-2.023437 1.179688-4.371094.460938-6.519531-.714844-2.144531-2.257812-3.921875-4.285156-4.933594l-51.199219-25.597656c-1.71875-.867187-3.679687-1.125-5.5625-.726563l-32.425781 6.484376v-23.722657c0-9.425781-7.640625-17.066406-17.066406-17.066406h-19.167969c-7.609375.023437-14.289063 5.066406-16.402344 12.375l-14.375 50.347656-39.785156 23.890625c-1.503907.902344-2.699219 2.246094-3.414063 3.851563l-31.871094 71.667969h-40.105468l-30.933594-69.585938c-1.328125-3.003906-3.550781-5.523438-6.367188-7.210938l-37.648437-22.1875-14.71875-51.566406c-1.980469-6.839844-8.230469-11.558594-15.351563-11.582031h-21.09375c-8.816406.011719-15.957031 7.152344-15.96875 15.96875v24.820313l-29.949218-5.972657c-3.472656-.6875-7.074219-.203125-10.242188 1.375l-42.308594 21.121094c-7.863281 3.964844-11.035156 13.542969-7.097656 21.417969zm140.800782 17.460938 19.34375 45.105469h-18.710938c-.835938.070312-1.664062.207031-2.476562.402343v-46.292969zm-99.0625 179.992187c1.214843-1.210937 2.226562-2.609375 2.996093-4.144531l14.128907-28.339844h15.957031l-18.773438 43.851563c-6.582031 2.523437-10.933593 8.832031-10.957031 15.882812v25.597656h-17.066406v-25.597656l-.324219-13.210937zm199.621093-32.484375h147.976563l18.285156 42.667969h-72.398438c-6.070312.015625-11.667968 3.269531-14.691406 8.53125h-158.347656c-3.023438-5.261719-8.621094-8.515625-14.691406-8.53125h-72.398438l18.289063-42.667969zm42.664063 85.332031h-119.464844v-17.066406h153.597656v17.066406zm-42.664063 42.667969h-34.136719v-25.601562h68.269532v25.601562zm-119.46875-8.535156h-34.132812v-17.066406h34.132812zm-59.734375-59.730469h34.132813v25.597656h-34.132813zm68.269532 25.597656h-17.066407v-25.597656h34.132813v25.597656zm204.796874-25.597656h34.136719v25.597656h-34.136719zm25.601563 42.664063h34.132813v17.066406h-34.132813zm42.667969-17.066407h-17.066406v-25.597656h34.132812v25.597656zm-332.800782 114.203126-10.292968 5.265624h-26.339844c-3.332031 0-6.035156-2.703124-6.035156-6.035156v-52.214844l42.933594 36.804688c-.167969.917969-.257813 1.847656-.265626 2.78125zm14.847657-29.320313c-1.042969.066406-2.074219.242187-3.082031.519531l-54.433594-46.660156v-21.675781h42.667968v17.066406c0 9.425781 7.640626 17.066406 17.066407 17.066406h34.132812c9.425781 0 17.066407-7.640625 17.066407-17.066406v-17.066406h51.199218v25.601562c0 9.425781 7.640625 17.066407 17.066406 17.066407h68.269532c9.425781 0 17.066406-7.640626 17.066406-17.066407v-25.601562h51.199219v17.066406c0 9.425781 7.640625 17.066406 17.066406 17.066406h34.132813c9.425781 0 17.066406-7.640625 17.066406-17.066406v-17.066406h42.667968v21.675781l-54.09375 46.371094c-21.339843-1.484375-122.546874-8.3125-159.238281-8.3125-34.878906 0-128.085937 6.1875-155.820312 8.082031zm367.386719 32.816406c-1.132813 1.136719-2.667969 1.769531-4.269532 1.769531h-24.683594c-.9375-.003906-1.863281-.222656-2.699218-.640624l-5.972656-2.96875c-2.03125-1.027344-3.300782-3.121094-3.277344-5.394532v-12.671875l42.667968-36.574219v52.214844c0 1.601563-.632812 3.136719-1.765624 4.265625zm-12.800782-171.398437 12.066406 12.066406c1.601563 1.601562 2.5 3.773438 2.5 6.042969v35.589843h-17.066406v-25.597656c-.019531-7.042968-4.359375-13.351562-10.933594-15.882812l-18.796874-43.851563h15.921874l14.703126 29.414063c.414062.820312.957031 1.566406 1.605468 2.21875zm-96.367187-134.035156h-21.1875l19.15625-44.695313 2.03125-.855469zm23.5-145.066407h19.167969v27.980469l-30.023438 10.011719zm-59.460938 82.773438 39.542969-23.730469 49.828125-16.605469 39.253906-7.851562 40.960938 20.480469-4.722657 9.4375c-2.605468 5.207031-8.9375 7.316406-14.144531 4.710937-2.027343-1.011719-4.371093-1.179687-6.519531-.460937s-3.921875 2.257812-4.933594 4.285156l-6.179687 12.296875h-10.742188l-26.648437-6.664063v-10.402344c0-2.871093-1.441406-5.546874-3.835938-7.125-2.398437-1.578124-5.425781-1.847656-8.0625-.71875l-42.511718 18.21875-.222657.09375-16.996093 7.289063c-2.015626.863281-3.617188 2.464844-4.480469 4.480469l-23.382813 54.558594h-23.894531zm-66.4375 79.363281h99.554688l26.617187 19.957031c2.988282 2.257813 5.71875 4.832031 8.148438 7.679688l34.859375 40.628906h-338.371094l38.398437-44.859375 24.390626-18.519531c.59375-.34375 1.144531-.765625 1.636718-1.246094l4.839844-3.640625zm-145.070312-162.136719h19.167969l10.855468 37.992188-30.328125-10.113281c.183594-.925782.285157-1.863282.304688-2.804688zm-50.34375 34.46875 31.273437 6.253907c1.765625.324218 3.578125.34375 5.351563.058593.746093.628907 1.597656 1.121094 2.515625 1.453125l50.894531 16.964844c.382813.269531.722656.585938 1.125.851562l37.691406 22.367188 27.828125 62.648438h-24.984375c-.085937-1.777344-.472656-3.527344-1.144531-5.179688l-19.984375-46.640625c-1.609375-3.777344-4.613281-6.78125-8.390625-8.390625l-14.285156-6.117188-.230469-.09375-32.136719-13.789062c-4.792968-2.0625-10.292968-1.648438-14.722656 1.105469-4.433594 2.753906-7.242188 7.5-7.523438 12.710937l-26.511718 6.664063h-10.878906l-2.851563-5.703125c-3.964844-7.867188-13.546875-11.042969-21.425781-7.097656l-2.78125 1.390624-9.4375-18.910156zm0 0"></path><path d="m219.289062 196.503906h-59.730468c-4.714844 0-8.535156 3.820313-8.535156 8.53125 0 4.714844 3.820312 8.535156 8.535156 8.535156h59.730468c4.714844 0 8.535157-3.820312 8.535157-8.535156 0-4.710937-3.820313-8.53125-8.535157-8.53125zm0 0"></path><path d="m313.15625 213.570312h34.132812c4.714844 0 8.535157-3.820312 8.535157-8.535156 0-4.710937-3.820313-8.53125-8.535157-8.53125h-34.132812c-4.710938 0-8.53125 3.820313-8.53125 8.53125 0 4.714844 3.820312 8.535156 8.53125 8.535156zm0 0"></path><path d="m279.023438 213.570312h8.535156c4.710937 0 8.53125-3.820312 8.53125-8.535156 0-4.710937-3.820313-8.53125-8.53125-8.53125h-8.535156c-4.710938 0-8.53125 3.820313-8.53125 8.53125 0 4.714844 3.820312 8.535156 8.53125 8.535156zm0 0"></path></g></svg>